<?xml version="1.0" encoding="UTF-8"?> <svg xmlns="http://www.w3.org/2000/svg" viewBox="0 0 153.399 40"><path d="M153.29,5.155c-.083-.1-.25-.042-.4.021s-1.436.52-1.436.52-.583.25-1.061.4c-.479.166-1.706.52-1.914.583-.208.083-.728.5-.895.583s-.541.375-.687.375c-.125.021-.166-.25-.4-.083a3.1,3.1,0,0,1-.666.312,3.6,3.6,0,0,0-.583.291,3.887,3.887,0,0,1-.832.416.937.937,0,0,0-.541.187,6.416,6.416,0,0,1-.749.666.929.929,0,0,1-.708.1c-.187,0-.187.062-.375.25s-.125.1-.354.25c-.208.125-.832.562-1.082.666a8.638,8.638,0,0,0-.978.416c-.187.146-.271.4-.271-.021s.187-.479.312-.687a9.36,9.36,0,0,1,.416-1.207,10.733,10.733,0,0,0,.437-1.311,5.194,5.194,0,0,0,.312-.832c.042-.083.146-.021.125-.229-.042-.208-.416.166-.4-.187,0-.354.25-1.061.208-1.228s-.229-.166-.458-.291a2.759,2.759,0,0,1-.707-.333c-.187-.166-.125-.021-.291-.083s.083-.52-.125-.624-.479.291-.479.416-.042.229-.208.146a4.559,4.559,0,0,0-.978-.458c-.146.021-.166.291-.291.375a1.74,1.74,0,0,0-.27.437c-.083.146-.291.271-.375.375s0,.271-.25.291-.479.042-.624.291-.291.166-.375.354c-.062.187-.312.416-.374.6a.742.742,0,0,1-.229.479c-.187.187-.25.541-.4.77a5.884,5.884,0,0,0-.6.832c-.042.187-.312.437-.271.6a1.937,1.937,0,0,1-.333.791,1.33,1.33,0,0,0-.291.416c-.062.166-.562,1.831-.77,2.185s-.208.936-.333,1.1a2.517,2.517,0,0,0-.4.6c-.125.291-.4,1.082-.562,1.353-.166.291-.187.583-.437.77s-.832.291-.957.437c-.1.146-.062.187-.125.52s-.166.541-.333.52-.125.25-.166.375a2.4,2.4,0,0,1-.437.479c-.1.042-.187.083-.229.1-.1.042-.062.166-.25.125s-.271.042-.541.187a5.948,5.948,0,0,0-.6.333,1.75,1.75,0,0,1-.52.271c-.187.042-.52.208-.6.166s0-.125-.083-.166c-.1-.042-.291.1-.416.187a3.037,3.037,0,0,1-.624.146c-.146.042-.375.291-.416.312s-.583.229-.791.333-.874.375-1.165.541a1.436,1.436,0,0,1-.687.146c-.125,0-.728.354-.936.416a3.349,3.349,0,0,1-.853.083,1.143,1.143,0,0,0-.479.146c-.1.062-.312.333-.416.354-.125.021-.541.271-.77.354s-.624.166-1.061.27-.25.166-.291.271-.229.1-.52.1c-.312,0-.229.146-.271.25s-.125.354-.375.271.125-.125.125-.229c.021-.1-.083-.083-.166-.1a1.51,1.51,0,0,0-.25-.1c-.1-.021-.166.125-.291-.021-.146-.146-.208-.042-.291.1a2.77,2.77,0,0,1-1.332.1,3.129,3.129,0,0,0-.458-.416c0-.083-.083-.375-.1-.5a5,5,0,0,1,.1-.957c.062-.354.1-.583.146-.749a3.539,3.539,0,0,0,.021-.832.483.483,0,0,0-.291-.437c-.125-.062.021-.333.166-.291.4.229.291-.146.416-.416s.312-.083.437-.166a2.294,2.294,0,0,1,.354-.812,6.059,6.059,0,0,0,.4-.728,1.637,1.637,0,0,0,.354-.437,1.962,1.962,0,0,1,.416-.5c.208-.146.1-.271.021-.229a.191.191,0,0,1-.25-.021c-.083-.083-.062-.083-.146-.1s.1-.271.021-.354.375-.458.666-.707a2.657,2.657,0,0,0,.936-.479,4.445,4.445,0,0,0,.541-.52c.125-.125.271-.125.333.021s-.1.291,0,.291.291-.208.4-.291a1.392,1.392,0,0,1,.4-.291,3.35,3.35,0,0,0,.583-.375c.187-.125.187-.166.291-.208s.146-.083.25-.229a3.287,3.287,0,0,1,1.061-.541c.562-.229.354-.021.708-.416s.6-.25.895-.541a.678.678,0,0,1,.583-.229c.1-.042.25-.291.354-.333.125-.062.458,0,.687-.1s.437-.25.624-.333,1.144-.416,1.269-.5a1.168,1.168,0,0,1,.458-.187,2.242,2.242,0,0,1,.749-.042c.25,0,.354-.208.416-.25.062-.062.291-.042.375-.1.083-.042.083-.146.166-.25a1.6,1.6,0,0,1,.5-.333c.187-.083.4-.042.52-.125a1.157,1.157,0,0,1,.541-.208c.374-.083.187-.166.1-.25-.083-.1-.832-.042-.916-.1s.021-.333.146-.645a2.361,2.361,0,0,0,.125-.687c-.021-.083-.354-.208-.437-.312s-.4-.375-.5-.479c-.1-.083-.291,0-.6-.021s.062-.166.125-.271,0-.333,0-.416a1.08,1.08,0,0,0-.416-.52c-.146-.042-.957-.062-1.352-.083a3.052,3.052,0,0,0-1.144.021,7.607,7.607,0,0,1-.957.208c-.229.021-.645.25-1.02.333s-.416.271-.583.229c-.146-.042.1-.208.021-.271s-.166.042-.354.083a7.752,7.752,0,0,1-.936.271,1.3,1.3,0,0,0-.728.312,2.618,2.618,0,0,1-.874.271c-.166,0,.021.291-.4.312a2.82,2.82,0,0,0-1.248.624,6.828,6.828,0,0,0-1,.874c-.1.187-.853.5-1.082.666a5.525,5.525,0,0,0-.6.624c-.146.146-.583.229-.77.4s-.624.645-.957.957-.936.812-.936.812a3.637,3.637,0,0,0-.687.583,5.9,5.9,0,0,1-.624.916c-.125.1-.333.645-.5.749a5.792,5.792,0,0,0-.624.832,6.909,6.909,0,0,1-.707.916,1.6,1.6,0,0,0-.416.749.065.065,0,0,1-.021.042c-.583.042-1.145.062-1.269.062a5.423,5.423,0,0,0-1.415.062c-.229.1-.978.416-1.228.25s.166-.853,0-.936c-.166-.062-.375.354-.687.187s.187-.5.25-.812a3.461,3.461,0,0,1,.791-1.1c.208-.229.146-.812.333-.916.208-.1.416-.208.354-.916a1.762,1.762,0,0,0,.354-.874c.062-.354.333-.458.333-.791a16.118,16.118,0,0,1,.624-2.768c.208-.5.25-.832.125-.978-.125-.125-.146.042-.291-.1s-.021-.271,0-.479c.021-.187,0-.77-.146-.853s-1.332-.1-1.436-.187a1.825,1.825,0,0,0-.52-.416c-.187-.083-.187.146-.479.083a13,13,0,0,0-1.5-.791c-.271,0-.562-.042-.333.291a5.121,5.121,0,0,1-1.29.853c-.291.083-.666.083-.791.271a1.341,1.341,0,0,1-.541.375,1.337,1.337,0,0,0-.541.541,2.664,2.664,0,0,1-.666.812,4.633,4.633,0,0,0-.916.749,3.143,3.143,0,0,1-.645.645c-.146.1-.166.187-.354.354s-.312.187-.4.312a8.336,8.336,0,0,1-.583.77,10.916,10.916,0,0,0-.916,1.04c-.1.187.021.271-.333.375-.374.125-.6.77-1.186,1.436-.583.687-.562,1.082-.728,1.186s-.4.1-.52.312a10.543,10.543,0,0,0-.687,1.061,3.262,3.262,0,0,1-.5.895c-.187.166-.229.479-.541.6a2,2,0,0,0-.479.624,2.844,2.844,0,0,1-.52.666c-.062.062-.541.416-.541.541s.125.291-.146.4c-.27.125-.416.25-.375.375a.269.269,0,0,1-.187.271c-.1.042-.77.125-.895.187a1.433,1.433,0,0,1-.166.062v-.416c0-.166-.146-.541-.208-.916a1.592,1.592,0,0,0-.707-.978,2.686,2.686,0,0,1-.791-.728c-.187-.271-.707-.4-1.082-.5a6.589,6.589,0,0,1-.936-.479c-1.061-.083-1.29-.333-1.311-.458-.021-.146.541-.291.728-.354.187-.291.333-.312.333-.5s.229-.375.375-.416c.146-.021.416-.229.5-.166s.25,0,.333-.166.208-.187.666-.291c.437-.1.375-.479.687-.77A3.443,3.443,0,0,0,86,12.438a1.336,1.336,0,0,0,.791-1.061c.042-.208.229-.728.25-.874s.1-.042.208-.291S86.89,9.192,86.64,9c-.042-.4-.208-.52-.562-.853a5.423,5.423,0,0,0-1.061-.77,1.134,1.134,0,0,0-.853-.77,4.424,4.424,0,0,1-1.207-.583c-.708-.437-.624-.229-.936-.187a4.629,4.629,0,0,1-1.29-.541,3.821,3.821,0,0,1-1.394-.354,3.594,3.594,0,0,0-.874-.1c-.229-.021-.271-.166-.562-.042-.291.1-.208-.083-.125-.1s.271-.5.291-.583c.021-.1-.146-.125-.187-.166s.166-.333.25-.5-.25.021-.375.062c-.1.042-.042.312-.083.479s-.125.312-.229.312-.021-.166-.083-.187c-.146.021-.208-.208-.25-.291s.1-.187.208-.312a.606.606,0,0,0,.125-.312.914.914,0,0,1,.208-.4.911.911,0,0,0,.187-.52c.021-.187.146-.291.271-.479s.042-.333-.062-.333-.25.208-.271.125A7.553,7.553,0,0,1,78.4.224c.125-.208-.479-.166-.562-.083s-.25.042-.375.271a4.957,4.957,0,0,1-.5.728c-.146.187-.166.271-.291.354a2.032,2.032,0,0,0-.437.666c-.125.271-.25.166-.333.291-.042.333-.4.687-.416.812a2.108,2.108,0,0,1-.437.687c-.166.125-.083.271-.146.4a.682.682,0,0,1-.312.333A11.783,11.783,0,0,1,73.3,4.7a4.265,4.265,0,0,0-1.04.187,3.052,3.052,0,0,1-1.02-.062c-.4-.021-.291.125-.874.187-.479-.021-.354.083-.458.166a2.3,2.3,0,0,1-.687.083c-.042-.042-.125-.021-.083-.083.062-.062.208-.312.062-.354s-.354.354-.52.291a6.259,6.259,0,0,0-.916-.458c-.166,0-.1.187-.312-.021a1.172,1.172,0,0,0-.895.187c-.312.229-.6.666-.874.832a4.9,4.9,0,0,0-.437.333,1.715,1.715,0,0,0-.936.437c-.229.083-.479.042-.6.125a10.461,10.461,0,0,0-1.082.416c-.853-.125-.832.146-.916.229a.581.581,0,0,1-.52.187c-.354,0-.52.083-.437.229s.146,0,.354-.021,1.79,0,1.894,0c.125,0,.021-.125.1-.1.042,0,.25,0,.562-.021-.229.187-.458.354-.645.52-.229.208-.312,0-.52.146s-.5.6-.749.687a1.341,1.341,0,0,0-.791.707c-.271.479-1.311.978-1.5,1.124s-.957.6-1.02.687a5.73,5.73,0,0,1-1.311,1.04c-.375.146-1.1.957-1.124.812s-.5.25-.728.354c-.229.083-.832.52-1.165.166s-.541-.728-.6-.666.166.437.062.5c-.1.083-.5-.562-.458-1.249s-.042-2.768.062-2.872c.083-.1.479-.583.333-.6-.1-.083.291-.791.25-.978a8.723,8.723,0,0,0,.728-1.477c-.021-.229-.541-.312-.645-.541s.27-.916.25-1.061-.146,0-.1-.187-1.02-.208-1.1-.354-.166-.583-.416-.187A13.52,13.52,0,0,1,51.12,5.9c-.062-.062-.062-.229-.146-.187s-.624,1.207-.728,1.29c-.125.083-.187.062-.27.312s0,.458-.208.375c-.187-.1.042-.728.166-.874a.947.947,0,0,0,.166-.666c-.042-.208-.1-.458-.208-.333-.125.1-.229.77-.375.812a.439.439,0,0,0-.25.271c-.021.062-.291.208-.312.375-.021.146.1.416.021.541a7.613,7.613,0,0,0-.416,1c-.062.208-.1.25.021.271a8.159,8.159,0,0,1-.375,1.144,9.486,9.486,0,0,1-.291.916c-.083.146.125.229-.187.791-.312.541-.125,1.561-.25,1.914-.1.354-.187.291.083,2.351a1.212,1.212,0,0,0,.146.229,16.091,16.091,0,0,1-2.372.187,5.423,5.423,0,0,0-1.415.062c-.229.1-.978.416-1.228.25s.166-.853,0-.936-.375.354-.687.187.187-.5.25-.812a5.5,5.5,0,0,1,.437-1.6,1.307,1.307,0,0,0,.354-.728c0-.208.416-.042.333.312.166.187.416-.208.354-.916a1.763,1.763,0,0,0,.354-.874c.062-.354.333-.458.333-.791a16.109,16.109,0,0,1,.624-2.768c.208-.5.25-.832.125-.978-.125-.125-.146.042-.291-.1s-.021-.271,0-.479c.021-.187,0-.77-.146-.853s-1.332-.1-1.436-.187a4.664,4.664,0,0,0-.624-.687c-.187-.1-.4-.021-.333.062.062.062.25.354-.021.271a13.005,13.005,0,0,0-1.5-.791c-.27,0-.562-.042-.333.291a5.123,5.123,0,0,1-1.29.853c-.291.083-.666.083-.791.271a1.16,1.16,0,0,1-.541.375,1.337,1.337,0,0,0-.541.541,2.664,2.664,0,0,1-.666.812,4.636,4.636,0,0,0-.916.749c-.146.229-.458.25-.271.416s-.229.125-.375.229-.166.187-.354.354c-.166.166-.312.187-.4.312a8.34,8.34,0,0,1-.583.77,10.909,10.909,0,0,0-.916,1.04c-.1.187.021.271-.333.375-.375.125-.6.77-1.186,1.436-.583.687-.562,1.082-.728,1.186s-.4.1-.52.312a10.537,10.537,0,0,0-.687,1.061,2.977,2.977,0,0,1-.5.895c-.187.166-.229.479-.541.6a2,2,0,0,0-.479.624,2.845,2.845,0,0,1-.52.666c-.062.062-.541.416-.541.541s.125.291-.146.4-.416.25-.375.375a.269.269,0,0,1-.187.271c-.1.042-.77.125-.895.187s-.562.187-.749.062a.486.486,0,0,0-.583.166,1.29,1.29,0,0,1-.978.291c-.5-.042-.375.083-.416.166a1.039,1.039,0,0,1-.479.333c-.229.083-.375-.021-.458.125a.9.9,0,0,1-.416.354c-.187.083-.021.416.125.416s.541.021.749.021.25.042-.062.146.1.187.1.25c.021.062-.062.229-.437.333-.375.125-.4.25-.312.312s.687.208.832.375c.146.146.645-.1,1.124,0s-.312,1.02-.479,1.207-.25.166-.354.312-.208.458-.291.6c-.1.146-.125.354-.25.458a1.889,1.889,0,0,0-.312.458h-.25s-.1-.021-.146.042-.042.146-.458.062a5.963,5.963,0,0,1-.812-.146c0-.042.146-.125.291-.146s.291.021.375-.021a.194.194,0,0,1,.187,0,.338.338,0,0,0,.312-.1c.021-.125-.291-.083-.312-.187-.021-.042.187-.146.562-.083a.212.212,0,0,0,.166-.166c0-.021.125-.062.187-.062.083,0,.229-.354-.083-.541-.083-.042-.187-.021-.354.146-.125.021-.541.062-.562-.062s.291-.166.458-.146c.166,0,.271-.125.25-.229s-.1-.062-.1-.146.083-.1.208-.1.52-.166.479-.229c-.062-.146-.312-.1-.375-.083-.062,0-.021.1-.166.125a1.028,1.028,0,0,1-.5-.1.505.505,0,0,0-.333.021,3.265,3.265,0,0,0-.333-.062c-.062,0,.062.083-.062.125s-.583.083-.541-.021-.5.062-.52.1-.166.062-.291-.042c-.125.021-.146.1-.416.125a12.964,12.964,0,0,0-1.581.083c-.187.021-.333-.021-.562,0s-2.1.437-2.622.458c-.271.021-.1.062-.291.1s-.936.083-1.1.1-.1.062-.333.1-.52.187-.707.229a3.659,3.659,0,0,1-.77.166c-.166,0-.354-.062,0-.458a1.977,1.977,0,0,1,.354-.749,6.725,6.725,0,0,0,.562-1.144,7.772,7.772,0,0,1,.936-1.79c.1-.187.062-.832.437-1.165.042-.021-.042.146.062.146s.166-.229.271-.375.166-.333.229-.291-.042.208.021.229c.146.021.312-.166.437-.312a1.52,1.52,0,0,0,.291-.583,2.023,2.023,0,0,1,.375-.6c.062-.1.375-1.228.458-1.311a4.7,4.7,0,0,0,.624-.978,3.284,3.284,0,0,1,.271-.645.345.345,0,0,0,.062-.208c-.042-.707.1-1.457.437-1.477a.548.548,0,0,0,.312-.125,3.045,3.045,0,0,0,.583-.583,8.161,8.161,0,0,1,.5-.874,1.837,1.837,0,0,0,.375-.583c.042-.083-.042-.229.021-.291s.291-.166-.1-.479c.021-.271-.062-.687.333-.687.083,0,.083-.229.146-.229.042,0,.1-.208.166-.208a.821.821,0,0,0,.291-.416,3.317,3.317,0,0,0,.271-.936c.021-.1.021-.25.229-.25a3.555,3.555,0,0,0,.291-.541.336.336,0,0,0,.187-.291,1.241,1.241,0,0,1,.208-.666c.146-.125.125-.312.062-.333s-.333-.1-.333-.166c.021-.062.166-.437.1-.458s-.416-.083-.416-.416c0-.354-.291-.187-.416-.229s-.166-.25-.312-.166c-.083.042-.1,0-.146-.062-.083-.1-.291-.062-.333-.375-.042-.291.042-.25.042-.333,0-.062-.062-.208-.166-.166-.083.042.021.146-.4.208s-.52-.271-.645-.25-.291.291-.333-.146c-.146-.125-.458.062-.624.229a10.81,10.81,0,0,1-1.144,1.061c-.187.1-.312.146-.437.645s-.707.791-.832,1.228c.062.083.208.208-.229.375-.062.312.1.541-.1.645s-.291.062-.4.271-.125.562-.541.666c-.083.062.042.479-.042.52a1.533,1.533,0,0,0-.562.832,2.112,2.112,0,0,0-.458.624,3.973,3.973,0,0,1-.437.895.607.607,0,0,0-.208.333,1.424,1.424,0,0,1-.437.562,1.314,1.314,0,0,0-.437.749c-.042.229-.021.479-.1.541a.478.478,0,0,0-.229.479,1.081,1.081,0,0,0-.4.354c-.083.125-.166.874-.479.749-.083.083-.4,1.706-.77,1.415-.146.187-.291.874-.479.978s.1.1-.062.271a2.708,2.708,0,0,0-.375.52,8.1,8.1,0,0,1-.333.853c-.125.125.1.437.042.52a1.694,1.694,0,0,0-.479.791c-.1.062-.458.187-.707,1.207a.967.967,0,0,1-.479.562,1.827,1.827,0,0,0-.208.812c-.187.437-.1.437-.229.5-.1.062-.1.312-.208.375s-.291.1-.291.291c-.083.166-.208.291-.187.5a1.428,1.428,0,0,1-.021.832c-.146.312-.125.354-.271.375a5.938,5.938,0,0,0-1.311.4c-.146-.042-.52.229-.624.375-.25.021-.458-.042-.375.52,0,.146-.291.1-.312.208s-.187.146-.229.27.021.375-.021.479-.541.5-.624.728a3.035,3.035,0,0,0-.229,1.249.4.4,0,0,0,.541.25c.042.125.1.458.312.25.083.021.021.062.1.083s.354-.062.458,0,.312.271.312.375c0,0-.749,1.249-.645,1.519.146.125.541.333.541.458s-.042.416-.042.416.146.354.291.354.624-.666.645-.541c.042.27.354-.1.354-.333A4.934,4.934,0,0,0,3.7,32.414c.146-.062.437-.083.479-.25.125-.042.125.021.166,0,.062-.021.042-.208.146-.25s.146.229.125.312-.354.229-.4.333c-.042.083-1.04,1.831-.874,2.206.354.125.271-.707.583-.791.25.021.936-.541,1.144-1.29s.208-.271.312-.333c.208-.125.271-.853.375-.853.458,0,.062.208-.021.437a2.061,2.061,0,0,1-.271.853,2.017,2.017,0,0,0-.25,1.04c-.021.083-1.457,3.309-1.519,3.558s-.062.4-.083.458-.083.229-.042.312c-.021.1-.853,1.6-.853,1.685s.042.062.062.1c.021.021,0,.042.021.083.021.021.229.083.25,0S5.134,35.6,5.175,35.556s.229-.125.291-.291,1.561-3.309,1.623-3.517a.657.657,0,0,0,.291-.291c.166-.062.416-.187.416-.187.52-.229.5-.416.541-.458a2.717,2.717,0,0,1,.853-.146c.062-.062.146,0,.187-.042a4.557,4.557,0,0,1,1.831-.458c.083-.042.062-.271.271-.1.083.042.208-.187.291-.208s.437.146.666-.062a1.661,1.661,0,0,1,.791-.333c.083-.042-.042-.083.125-.125.146-.042.125.021.187,0a.816.816,0,0,1,.271-.1c.1,0,1.353-.083,1.5-.1.083-.083.1-.416.895.021.062.062-.166.083-.146.166,0,.062.291.042.479.042s.479-.021.562-.146c.1-.125.208.042.291,0s0-.146.4-.021c.083-.083-.021-.229,0-.312s.312-.146.562,0c.062,0,.083-.312.229,0a.455.455,0,0,0,.25-.229c.291-.021.458.062.583-.125.146-.187.146.125.25.083s.146-.166.291-.208a6.128,6.128,0,0,1,.957-.083l.166-.021c-.146.208-.4.416-.125.666a.316.316,0,0,0,.541-.1.565.565,0,0,1,.354-.166c.1-.021.229-.27.271-.333a1.7,1.7,0,0,1,.166-.187c.021-.042-.021-.1.083-.1s.166.125.25.1c.083,0,0,.208-.166.229-.021.062-.083.562.021.645.1.062.458-.208.52-.52.021-.083.271-.146.354-.25s.146-.25.312-.291.042-.146,0-.146c-.021,0-.062-.021-.062-.042.187-.021.375-.021.6-.042a.157.157,0,0,0-.021.083c-.062.062-.166.166-.166.229s.062.187.042.25c-.021.042-.25.229-.271.291-.062.187-.021.707-.062.749a1.353,1.353,0,0,0-.333.6c0,.208-.125.166-.187.333-.083.166-.291.458-.271.583s.271-.021.354-.062a.674.674,0,0,0,.229-.4.658.658,0,0,1,.229-.354c.042-.021.25.021.229-.1a.694.694,0,0,1,.229-.541c.166-.146.4-.229.458-.354s.062-.271.1-.333.354.083.458.187c.1.083.291-.083.312-.187.042-.1.312-.187.375-.333.021-.166.166-.333.083-.354s-.1-.021-.042-.125a.845.845,0,0,1,.291-.312,1.9,1.9,0,0,0,.25-.229,7.618,7.618,0,0,1,.978,0c.1,0-.083-.208-.083-.229,0-.1-.291-.125-.6-.146.146-.166.375-.4.375-.458s-.021-.312.291-.062c.083.021.1.021.146-.083a.42.42,0,0,1,.25-.25c.062,0,.166,0,.208-.291a1.1,1.1,0,0,1,.229-.6,2.529,2.529,0,0,0,.166-.354c.042-.083.4-.166.458-.437.021-.125.312-.52.416-.5s.229,0,.375-.312c.146-.333.271-.25.416-.229a1.376,1.376,0,0,0,.583,0c.1-.062.042-.208.187-.229s.6.021.707,0,.4,0,.541-.166a.968.968,0,0,1,.291-.375c.125-.1.125.208.6.208s.333-.541.458-.541.125.25.208.271a.976.976,0,0,0,.458-.083,4.006,4.006,0,0,1,.707-.187,9.16,9.16,0,0,1,1.061-.1c.1.021.1.291.083.479a9.648,9.648,0,0,0-.1,1.04,4.828,4.828,0,0,0,.187,2c0,.125-.187.479-.166.583s.062.312.1.333c.062.042.208.021.25.083.042.083.021.978.083,1.311s.083.541.146.541.021-1.249.1-1.29.146.25.166.312.166.4.312.458c.042.1.125,1.623.187,1.748s.083.541.146.666c.083.125.333-.791.291-1.373-.021-.583-.166-1.186.229-1.061.1-.062-.062-.583,0-.666s.083.25.125.333.208.271.27.271,0-.375.062-.4.125.021.1.312-.062,2.6,0,2.788.021.187.1.166c.083-.042.125-.166.146-.749,0-.146.208-.062.229.062s.062,1.581.146,1.81a3.524,3.524,0,0,0,.1,1.29c.1.208.25.479.291-.083s.042-1.706.1-1.748.146.021.146-.1-.021-2.5.458-2.539c.083-.062-.083-1.228.229-1.415a.687.687,0,0,0,0-.5.452.452,0,0,1-.083-.354c.042-.125.25-.936.291-1.165a8.266,8.266,0,0,1,.354-1.415c.083-.146.166-.312.25-.25.062.062.1-.4-.1-.333-.208.042-.021-.25-.021-.479a2.355,2.355,0,0,1,.146-.812c.083-.146.1.042.208.083s.146-.125.1-.312a.572.572,0,0,1,.666-.666c.6.062.853-.583,1.81-.624s.5.083.811,0,1-.208.812-.312-.583,0-.728-.146.666-.416,1.02-.458a9.8,9.8,0,0,0,1.144-.333c.4-.1.437-.062.687-.146.25-.062.437-.333.416-.416s-.479-.062-.562-.166.291-.354.666-.354.146-.333-.1-.271a6.945,6.945,0,0,1-2.351.083c-.166-.229.645-.375.832-.5s.479-.416.687-.312.229.021.375-.083a1.242,1.242,0,0,1,.52-.187,2.182,2.182,0,0,1,.312.541c.25.208.291.166.333.291s-.042.208.021.312.146-.042.291.062a3.044,3.044,0,0,0,1.415.77c.562.021.77-.042.916,0,.146.062.583.062.645.187.062.146-.27.645-.437.832-.146.187-.562.562-.52.812.021.25-.375-.042-.5.187a20.255,20.255,0,0,1-1.561,2.726,2.8,2.8,0,0,0-.687,1.186c-.062.271-.437.853-.458.583-.312,0-.416.728-.52,1.269a2.571,2.571,0,0,1-.5,1.124A8.357,8.357,0,0,1,46.48,29c-.4.583-.208.354-.375.957a4.613,4.613,0,0,1-.52,1.457c-.271.437-.479.791-.416.874.042.083.5-.6.749-.874s1.124-1.706,1.311-1.706c.208,0,.416-.208.541-.479a4.189,4.189,0,0,1,.936-1.207c.166-.021.166.1.4,0s.021-.083.166-.333.687-.541.874-1.082.166-.208.333-.354c.166-.125.354-.1.458-.312s.1-.375.229-.333c.146.042.042.25-.1.416s-.271.291-.416.437a1.486,1.486,0,0,0-.354.645c-.083.25-.354.416-.4.624a2.6,2.6,0,0,1-.4.874c-.125.1-.354.5-.291.6.042.1.187.042.271-.042.062.021-.1.271.021.271s.291-.291.4-.5a1.446,1.446,0,0,1,.52-.541c.166-.1.062-.25.125-.375s.583-.832.728-1.02.375-.957.541-.874.062.125.021.187-.458.832-.541.936.166.1.166.1a2.694,2.694,0,0,1-.333.853c-.1.1.042.125.042.208s-.083.021-.125.083-.166.208.25.27c.416.083-.125.458-.187.624a3.406,3.406,0,0,0-.146.583c-.021.146-.208.229-.208.333a2.516,2.516,0,0,1-.1.375c-.021.1-.187.187-.25.479s-.042.354.1.166c.146-.208.25-.728.4-.874a3.847,3.847,0,0,0,.458-.6c.083-.125.25-.437.354-.562s.062-.312.354-.479.562-.874.687-1.02c.146-.146.312-.146.437-.291a10.288,10.288,0,0,1,.562-.874,3.583,3.583,0,0,0,.562-.562,2.516,2.516,0,0,1,.437-.6c.1-.083.291-.541.375-.583s.1.125.229.083.375-.832.728-1.249.25-.666.416-.895a8.771,8.771,0,0,0,.77-.874c.208-.354.437-.749.541-.895s.291-.437.437-.5c.125-.062.146.1.25.021a3.689,3.689,0,0,0,.562-.728,1.708,1.708,0,0,1,.583-.728c.291-.187.25-.52.333-.583.52-.375.5-1.082.853-1.04a.434.434,0,0,0,.437-.187,1.576,1.576,0,0,1,.416-.458,7.32,7.32,0,0,0,.666-.77c.166-.208.333-.354.333-.52s.936-.936,1.082-1.082.458-.291.624-.541.125-.354.312-.458a1.4,1.4,0,0,0,.4-.562,1.006,1.006,0,0,1,.479-.333.918.918,0,0,0,.4-.291c.083-.1.562-.541.666-.666a11.383,11.383,0,0,1,.853-1.1c.187-.146.375-.062.354-.25a.5.5,0,0,1,.25-.624c0-.146-.083-.229-.021-.291a3.675,3.675,0,0,0,.562-.77A.618.618,0,0,1,68.7,8.36a13.444,13.444,0,0,1,2.414-.208c.291-.021.541-.083.583-.021.042.042-.042.125.062.25.687.083.312.479.25.583s-.125.083-.229.166a4.328,4.328,0,0,0-.25.978c-.271,0-.25.333-.375.6s-.333.333-.437.832-.208.562-.4.583.229.437-.062.583-.52.749-.583.957c-.083.208-.4.333-.541.624a10.417,10.417,0,0,0-.541,1.373,1.482,1.482,0,0,1-.25.624c-.1.125-.125.6-.187.728s-.77.229-.936.291a.575.575,0,0,0-.333.25c-.083.125-.52.25-.437.333a.281.281,0,0,0,.333,0c.1-.062.208,0,.4-.1a.553.553,0,0,1,.541.062c.125.083-.062.083-.146.187a3.037,3.037,0,0,1-.916.25c-.229.021-.146.083-.187.166a4.531,4.531,0,0,1-.916.333c-.187.062-.666.187-.645.312.021.146.687-.125.666,0a13.527,13.527,0,0,1-2.643.874c-.354.042-.458-.021-.375.166s.229.042.125.166c-.042.062-1.186.229-1.353.271a.967.967,0,0,0-.333.166c-.062.062.25.1.645.021s.916-.229,1.1-.271a2.2,2.2,0,0,0,.583-.083c.458-.125.333-.021.375.021.271.1,1-.166,1.165-.187a9.64,9.64,0,0,0,1.353-.187c.27-.021.354-.208.437-.062s-.146.562-.187.645-.125.166-.187.291-.062.437-.146.583c-.062.146-.291.166-.291.52s-.333.666-.312.791a5.65,5.65,0,0,0,0,1.186c.1-.062.437-1.082.5-1.124.083-.042.146.021.125.125s-.1.208-.1.291a1.309,1.309,0,0,1-.125.645,9.263,9.263,0,0,0-.479,1.644c-.021.166-.479.437-.208.458s.166-.166.291-.312.229-.375.437-.624a3.608,3.608,0,0,0,.416-1.1c.062-.208.4-.812.458-.957s.25-.333.312-.458c.083-.125.437-1.061.562-1,.125.042-.042.4-.021.583s-.541.832-.562,1.061a7.524,7.524,0,0,1-.25.978c-.062.291.021.52-.083.687s-.229.042-.25.229.187.125.333.021.187-.5.271-.6c.1-.1.6-.021.707.083s-.27,1.124-.312,1.269c-.042.125-.312.1-.271.271s-.375.042-.5.1a2.21,2.21,0,0,0-1.415.4,2.459,2.459,0,0,1-1.124.1,6.757,6.757,0,0,0-1.436.541c-.125,0-.062-.125-.312-.146s-.333.1-.666.375c-.333.291-.416.271-.375.125.062-.146-.957.229-1.082.229s-.375.291-.853.437-1.124.125-1.332.229a1.906,1.906,0,0,1-.77.271c-.146-.021-.5.25-.687.333-.208.083-.354-.125-.791.062-.416.187-.687.52-.978.645-.312.125-.791,0-.936.083a3.6,3.6,0,0,1-.874.291c-.146,0-.271-.1-.312.062-.021.062.25.1.458.062s.749-.083.957-.146.25.271.5.229.125-.208.25-.166c.125.021.083.1.1.166s-.146.125,0,.187a4.722,4.722,0,0,0,.728.1,3.124,3.124,0,0,1,1.477-.208.591.591,0,0,0,.375-.021,1.664,1.664,0,0,1,.853-.021c.187.042.083.208-.062.25-.125.042-.166-.125-.312-.125-.021.25-.479.187-.583.187s-.312.271-.458.229-.208.042-.333.146a3.363,3.363,0,0,0-.895.083c-.458.083-.562.1-.645.125s-1.04.187-1.29.208a.479.479,0,0,1-.375-.1c-.042-.021-.187.229-.312.229s-.125.062-.25.146-.479-.021-.583-.021c-.125,0-.562.042-.666.021s-.541.083-.541.166.25.062.229.166-.291.062-.5.042a1.5,1.5,0,0,0-.479.042c-.1.021-.208-.021-.333,0a1.835,1.835,0,0,1-.583-.125c-.208-.062-.271.1-.312.125a.925.925,0,0,1-.479,0c-.1-.062-.4-.021-.375.166,0,.187.25.021.4.1s.354-.042.52-.1a.945.945,0,0,1,.541,0,2.093,2.093,0,0,0,.812-.021c.187-.062.1.125.229.229a11.973,11.973,0,0,1,1.977,0c.687.166.541-.083.707-.146a7.44,7.44,0,0,1,1.353.187,2.528,2.528,0,0,0,1.186-.146,2.605,2.605,0,0,1,1.061,0,1.609,1.609,0,0,0,.832-.062c.25-.1.312.083.52.062s.25-.208.312-.27.479.042.583.062.27-.1.479-.1.291-.125.458-.062a1.146,1.146,0,0,0,.791-.166c.125-.125.208.062.271.166s.708,0,.957-.042a9.059,9.059,0,0,1,1.1.042,2.806,2.806,0,0,0,.874-.333c.895.125.957-.125,1.124-.166a5.388,5.388,0,0,0,1.04-.146c.25-.125.583.062.812-.083.25-.146.25-.208.4-.416s.4-.021.666-.146a2.573,2.573,0,0,1,.6-.208,3.934,3.934,0,0,1,1.124-.1,3.164,3.164,0,0,0,1.394-.291,3.508,3.508,0,0,0,.728-.375c.187-.083.936,0,1.04-.1s.458.1.707-.062.146-.333.354-.437c.166-.062.562-.166.6-.291.062-.146.291-.125.624-.27s.4.166.812-.042.416-.042.624-.062.291-.229.853-.354.666-.541.812-.416c.208.146.333-.042.479-.021s.479-.333.6-.333c.125.021.479-.333.645-.375s.25-.187.4-.25.166-.271.166-.271a.42.42,0,0,0,.166-.271c-.021-.125.042-.146.166-.146.354-.1.645-.25.583-.4s.479-.291.791-.541a5.4,5.4,0,0,0,.583-.541,4.557,4.557,0,0,1,.707-.6.544.544,0,0,0,.187-.479c0-.229.645-.1,1.124,0s-.312,1.02-.479,1.207-.25.166-.354.312-.208.458-.291.6c-.1.146-.125.354-.25.458a3.426,3.426,0,0,0-.458.77c-.083.187-.229.4-.333.583a3.919,3.919,0,0,1-.291.707c-.146.208-.416.437-.146.707a.316.316,0,0,0,.541-.1.565.565,0,0,1,.354-.166c.1-.021.229-.271.271-.333a1.7,1.7,0,0,1,.166-.187c.021-.042-.021-.1.083-.1s.166.125.25.1,0,.208-.166.229c-.021.062-.083.562.021.645.1.062.458-.208.52-.52.021-.083.27-.146.354-.25a.541.541,0,0,1,.312-.291c.166-.042.042-.146,0-.146s-.166-.062.021-.25.166-.208.333-.312,0-.146.146-.187.25.146.208.187a2.9,2.9,0,0,0-.208.562c-.062.062-.166.166-.166.229s.062.187.042.25c-.021.042-.25.229-.271.291-.062.187-.021.707-.062.749a1.352,1.352,0,0,0-.333.6c0,.208-.125.166-.187.333-.083.166-.291.458-.271.583s.271-.021.354-.062a.674.674,0,0,0,.229-.4.768.768,0,0,1,.229-.354c.042-.021.25.021.229-.1a.694.694,0,0,1,.229-.541c.166-.146.4-.229.458-.354s.062-.27.1-.333.354.083.458.187c.1.083.291-.083.312-.187.042-.1.312-.187.375-.333.021-.166.166-.333.083-.354-.062-.021-.1-.021-.042-.125a.845.845,0,0,1,.291-.312,2.609,2.609,0,0,0,.52-.541c.125-.187.416-.437.416-.5s-.021-.312.291-.062c.083.021.1.021.146-.083a.42.42,0,0,1,.25-.25c.062,0,.166,0,.208-.291a1.1,1.1,0,0,1,.229-.6c.083-.1.083-.333.167-.354a.715.715,0,0,0,.458-.437c.021-.125.312-.52.416-.5.125.021.229,0,.375-.312.146-.333.271-.25.416-.229a1.375,1.375,0,0,0,.583,0c.1-.062.042-.208.187-.229s.6.021.708,0,.541.062.541-.166c.125-.146.416-.166.895-.166s.354-.166.4-.25c.042-.125.187-.042.291,0a.771.771,0,0,0,.458-.083,4.01,4.01,0,0,1,.707-.187,9.158,9.158,0,0,1,1.061-.1c.1.021.1.291.083.479a9.645,9.645,0,0,0-.1,1.04,4.827,4.827,0,0,0,.187,2c0,.125-.187.479-.167.583s.062.312.1.333c.062.042.208.021.25.083.042.083.021.978.083,1.311.083.333-.042.562.146.541.25-.021.021-1.249.1-1.29s.146.25.166.312.167.4.312.458c.042.1.125,1.623.187,1.748s.083.541.146.666c.083.125.333-.791.291-1.373-.021-.583-.166-1.186.229-1.061.1-.062-.062-.583,0-.666s.083.25.125.333.208.271.271.271,0-.375.062-.4.125.021.1.312-.062,2.6,0,2.788.021.187.1.166c.083-.042.125-.166.146-.749,0-.146.208-.062.229.062s.062,1.581.146,1.81a3.522,3.522,0,0,0,.1,1.29c.1.208.25.479.291-.083s.042-1.706.1-1.748.146.021.146-.1-.021-2.5.458-2.539c.083-.062-.083-1.228.229-1.415a.686.686,0,0,0,0-.5.452.452,0,0,1-.083-.354c.042-.125.25-.936.291-1.165a8.257,8.257,0,0,1,.354-1.415c.083-.146.166-.312.25-.25.062.062.1-.4-.1-.333-.208.042-.021-.25-.021-.479a2.355,2.355,0,0,1,.146-.812c.083-.146.1.042.208.083s.146-.125.1-.312a.572.572,0,0,1,.666-.666c.6.062.853-.583,1.81-.624s.5.083.812,0c.062-.021.167-.021.291-.042v.042c0,.166-.166.229-.25.5a6.325,6.325,0,0,0-.021,1.394c-.1.125-.083.5.021.562s-.1.853-.146,1.144a2.8,2.8,0,0,0,.271,1.186,8.69,8.69,0,0,1,.416,1.269c.042.1.1.375.333.479a1.221,1.221,0,0,1,.479.416c.062.1.1.208.25.25a3.062,3.062,0,0,1,.666.583,2.419,2.419,0,0,0,1.02.479c.25.062.208-.146.333-.062a1.68,1.68,0,0,0,.936.291c.1.021.271.042.728.083.271.291.728.042.853,0a2.283,2.283,0,0,1,.728.1c.146.042.125-.229.458-.25s.062.042.25.25.479.083,1.415-.083a5.316,5.316,0,0,0,1.686-.583c.146-.1.52-.354.645-.25s.749-.021,1.04-.125.208-.1.4-.166a1.547,1.547,0,0,1,.52-.062c.166,0,.4-.187.583-.25s.4-.146.707-.271a2.472,2.472,0,0,0,.562-.333c.166-.083.832-.375,1-.437a1.358,1.358,0,0,0,.416-.312c.062-.083.333-.187.375-.271.021-.083-.1-.062-.208-.187-.125-.125.187-.146.312-.229a4.707,4.707,0,0,1,.791-.645c.083-.187.229-.125.333-.146s.6-.479.791-.583a2.623,2.623,0,0,0,.562-.416c.083-.1-.146-.021-.27,0-.146.021-.25.1-.374,0-.021-.229-.187-.187-.229-.25-.042-.083.271-.229.479-.4s.229.042.229.208.916-.229,1.124-.271.125-.6.021-.583-.541-.707-.812-.562a8.1,8.1,0,0,1-.791.333c-.25.1-.583.125-.812.208s-.312.062-.645.187c-.333.146-.354-.042-.374-.187-.021-.166.354-.146.583-.146s.5-.271.687-.291c.187-.042.229-.187.25-.333s.749-.541.957-.645.333-.458.5-.541c.187-.062.25,0,.333-.146.187-.042.354-.062.5-.1.062.042.125-.021.187.042.083.083.271.271.167.375s-.437.146-.5.312-.291-.042-.4.125-.291.458-.021.416.354.312.5.125.333-.125.5-.229c.167-.083.562-.4.645-.229s-.146.479-.187.6-.125.083-.25.437a1.621,1.621,0,0,0-.187.77c-.146.062-.291.125-.291.291s.021.666-.083.77-.4.062-.416.229.125.125.083.354a5.427,5.427,0,0,1-.1.749c-.062.125-.187.187-.312.333s-.27.479-.229.541a1.467,1.467,0,0,1,.021.437,1.112,1.112,0,0,1-.062.562c-.083.187-.229.4-.042.541-.125.375-.312.936-.354,1.082s-.021.416-.1.458c-.1.062-.187.021-.1.5-.062.146-.021.166-.083.25s-.1.1-.125.146a.4.4,0,0,1-.021.208.981.981,0,0,0-.083.354c0,.146-.042.416.1.312.167-.1.1-.042.187-.208a.435.435,0,0,1,.208-.25c.083-.042-.042.25.166.229.083-.062.146-.333.166-.4s.27-.562.312-.624,0-.125.062-.229a1.2,1.2,0,0,0,.166-.437,4.2,4.2,0,0,0,.375-.5c.042-.083.021-.166.062-.208.042-.062.146-.187.208-.271s-.083-.375.125-.52c.042-.042,0-.083,0-.166s.021-.479.208-.479.042.5.042.5-.125.312-.062.333a.926.926,0,0,0,.416-.624c.083-.229.208-.187.271-.271a8.077,8.077,0,0,0,.354-.853,2.021,2.021,0,0,1,.312-.4c.062-.083,0-.312.167-.291.166.042-.021.146,0,.229a1.258,1.258,0,0,0,.146.208.609.609,0,0,1,.1.479c-.062.208-.229.583-.27.728a3.955,3.955,0,0,0-.229,1.124c.021.042-.1.1-.1.291a3.163,3.163,0,0,1,0,.458c-.021.042-.208-.021-.208.5-.042.125-.187.25-.042.25.146-.021.208-.166.25-.208a.938.938,0,0,1,.187-.208c.042-.021.1-.291.208-.312s.062.1.146.1.1-.125.1-.146-.021-.312.062-.4.166-.062.271-.146.125-.021.166-.187.146-.458.229-.5c.062-.042.229-.062.25-.166s.208-.312.166-.333c-.042-.042,0-.083-.083-.042-.021-.062.146-.5.25-.52s.229.083.291.083c.021.083-.187.208-.187.25a1.051,1.051,0,0,1-.042.312c-.042.125-.1.125-.146.27-.042.125-.042.208-.1.271-.042.062-.042.146-.083.208s-.1.042-.167.1a.317.317,0,0,0-.125.229c0,.1-.083.271-.042.312s.229.021.229-.1.1-.208.125-.25c.042-.021.062-.125.1-.166.021-.042.042-.229.1-.271s.187-.27.229-.27c.062,0,.291.062.25.1a3.313,3.313,0,0,0-.166.375c-.021.1-.146.146-.083.166s.166.083.25-.1a1.777,1.777,0,0,1,.333-.562c.479-.125.52-.916.6-1.1a8.507,8.507,0,0,1,.437-.874,4.324,4.324,0,0,0,.333-.936c.083-.208.146-.291.25-.5a3.289,3.289,0,0,1,.291-.6c.083-.062.062-.312.125-.4s.416-.479.375-.541c-.042-.042-.083-.1-.021-.146s.229-.125.25-.229c.021-.083.166-.5.208-.583s.333.062.333.1-.1.52.208.52c.312.021,0,.271.042.291a.929.929,0,0,1,.333.458c.021.187.021.187.166.25a3.882,3.882,0,0,1,.624.853c.042.083.146,0,.166.062a.718.718,0,0,0,.187.479,2.6,2.6,0,0,0,.4.375c.083.062-.021.125.062.146a.307.307,0,0,1,.208.187c.042.1.437.624.437.687a.727.727,0,0,0,.437.4c.291.125.25.333.312.375s.166.062.229.166a4.074,4.074,0,0,1,.312.312,5.482,5.482,0,0,0,.6.6c.146.1.187.042.229.146s.437.271.541.354a3.341,3.341,0,0,0,.687.583c.229.1.895.812,1.311.957a5.667,5.667,0,0,0,1.04.791c.1-.021.1.021.146.083a1.13,1.13,0,0,0,.312.187c.083.042.791.458.916.416.146-.042.208.042.291.146s.208.1.374.166.5.271.687.229c.166-.042.229-.062.27,0s.208.062.229.083.229.146.354.083.166-.062.1-.1c-.062-.062-.374-.354-.458-.333-.083,0-.229-.125-.291-.208s.021-.1-.25-.125a1.017,1.017,0,0,1-.645-.229c-.208-.166-.333-.312-.5-.333a.824.824,0,0,1-.458-.375c-.125-.083-.25-.062-.25-.25-.187-.146-.853-.479-.832-.666s.125-.333.125-.25a.123.123,0,0,0,.229.021c.1-.021.146.146.25.208a5.3,5.3,0,0,0,1.519.541c.146.042.375.166.458.1s.021-.1-.083-.208c-.1-.083-1.04-.874-1.124-.957a3.463,3.463,0,0,0-.5-.375c-.146-.083-.208-.25-.4-.437s-.375-.375-.479-.458c-.125-.083-.312-.291-.562-.479s-.4-.291-.416-.562c-.229-.1-.166-.146-.083-.229s.083.1.208.042.042-.125.166-.146.416.4.52.479.416.624.562.645a.83.83,0,0,1,.52.291,3.473,3.473,0,0,0,.624.749c.1,0,.125,0,.167.1.042.125.312.229.437.229.146,0,.062.166.146.187.083.042.458.187.541.229s.1.125.25.1c.146,0,.562.021.312-.146s-.728-.437-.77-.624-.083-.291-.458-.458-.354-.541-.479-.812a2.025,2.025,0,0,0-.562-.666c-.166-.146-.416-.333-.416-.437s.1-.187-.062-.333a8.114,8.114,0,0,1-.853-.916c-.021-.083-.125-.083-.1-.146s.083-.271-.042-.354-.021-.166-.25-.333a3.068,3.068,0,0,1-.666-1.04c-.083-.25-.208-.437-.291-.458a2.2,2.2,0,0,1-.479-.874,2.54,2.54,0,0,0-.4-.791c-.083-.1-.166-.333-.312-.583a.619.619,0,0,1-.291-.354,7.634,7.634,0,0,0-.666-1.061,6.121,6.121,0,0,1-.624-1.5c.062-.125.52-.333.52-.333s-.125-.1.042-.208c.187-.083.374-.4.624-.312s.354.166.437-.021.166-.354.375-.416c.208-.042.125-.291.25-.333s.229.021.4-.062.728-.187.708-.271c-.042-.083-.25-.083-.146-.146s.52-.375.229-.4-1.061.166-.437-.229.728-.541.937-.5.27.042.4-.1.1-.271.27-.312a2.21,2.21,0,0,0,.687-.375c.125-.125.291-.333.437-.354s.146-.062.271,0,.707-.187.687-.375c-.042-.187.354-.208.562-.354s.749-.312.916-.416a1.411,1.411,0,0,1,.583-.312c.27-.042.437-.229.77-.312.333-.062.624-.541.853-.624s.125-.229.416-.354a4.641,4.641,0,0,0,.957-.562c.083-.1.416-.208.354-.291s-.333.062-.52.187c-.187.1-.312.25-.562.229a1.327,1.327,0,0,1-.479-.125c-.167-.062-.562.083-.541-.1.021-.208.042-.229.208-.291s0-.146.166-.229c.146-.062.354-.229.479-.291s.187-.291.25-.4a.7.7,0,0,1,.374-.25c.083,0,.25-.021.25-.125s-.083-.271-.312-.146a2.439,2.439,0,0,1-.645.312.683.683,0,0,0-.4.083c-.083.062-.187.1-.208.166s.063.166-.146.166-.25-.187-.375-.166-.083.062-.25.125-.125.146-.416.187-.562.229-.6.021.937-.458,1.04-.52c.083-.062.291-.1.437-.187s.416-.146.52-.271,0-.333.083-.4.312-.146.375-.271a.949.949,0,0,1,.4-.354A3.748,3.748,0,0,0,151,6.7a1.088,1.088,0,0,1,.354-.271,3.313,3.313,0,0,0,.6-.312,7.526,7.526,0,0,1,.728-.354,2.986,2.986,0,0,0,.437-.25C153.123,5.3,153.394,5.28,153.29,5.155ZM37.366,15.768a.351.351,0,0,0-.25.375c-.021.1.1.146.146.208s-.042.062-.125.187a4.248,4.248,0,0,0-.166.728c-.062.25-.083.562-.25.541a17.367,17.367,0,0,0-2.143.375c-.25.062-.312.062-.375,0-.146-.125-.312-.52-.208-.645s.687-.583.791-.666.1-.271.187-.291a.51.51,0,0,0,.229-.333c.021-.125.291-.4.4-.52s.229-.5.479-.541.062.458.208.458,0-.229.229-.229a.344.344,0,0,0,.354-.312c.042-.166.291-.271.416-.354s.125-.291.208-.25.125.416.208.645A.587.587,0,0,1,37.366,15.768ZM80.273,20.72c-.062.291-.978.874-1.165.978a2.22,2.22,0,0,1-.562.166,3.6,3.6,0,0,0-.749.5,3,3,0,0,1-.832.271,1.38,1.38,0,0,0-.583.27c-.166.146-.166.333-.312.333a2.955,2.955,0,0,0-.624.187,13.421,13.421,0,0,1-1.685.5c-.791.187-.687.25-.832.333a8.754,8.754,0,0,1-.874.25,3.706,3.706,0,0,1-.957.021c-.187-.021-.458.4-.52.479s-.291.062-.375-.1l.021-.312a1.05,1.05,0,0,1,.25-.4,3.352,3.352,0,0,0,.437-.916,8.178,8.178,0,0,1,.375-.895c.166-.25.25-.271.312-.583s.333-.52.375-.812a8.49,8.49,0,0,0,.749-1.207.887.887,0,0,1,.291-.4c.1-.083.125-.312.4-.333s-.042.333.166.187a12.012,12.012,0,0,1,2.58-.229c.479.042-.021.354.728.25.77-.083.541.1.728.146a1.623,1.623,0,0,0,.5-.062c.1,0,.375.166.832.25a2.882,2.882,0,0,1,.916.291C79.982,20.013,80.336,20.429,80.273,20.72Zm.812-9.3c-.166.1-.208.4-.437.416s-.416.312-.812.437c-.4.146-.437.458-.645.541s-.146,0-.271-.021-.083.166-.271.312a2.063,2.063,0,0,1-.895.146c-.146,0-.208.125-.354.208a2.5,2.5,0,0,1-.583.271c-.187.042-.333.271-.458.333a5.061,5.061,0,0,1-.728.1c-.229.042-.25.146-.374.208-.083.042-.083-.271-.062-.416.042-.146.291-.6.4-.853.271-.271.312-.375.312-.562a5.537,5.537,0,0,1,.708-1.228c.1-.125.125-.187.229-.312s.25-.541.333-.624,0-.125.1-.291S78.463,9.941,79,9.941s.208-.042.416-.187.146-.042.25.062.541,0,.52.125.083.229.146.458c.062.208.624.125.77.166a.362.362,0,0,1,.27.4A.5.5,0,0,1,81.085,11.419Zm17.9,4.349a.351.351,0,0,0-.25.375c-.021.1.042.083.1.146.042.062.021.125-.083.27a4.248,4.248,0,0,0-.167.728c-.062.25-.083.562-.25.541a17.366,17.366,0,0,0-2.143.375.9.9,0,0,1-.375,0,.4.4,0,0,1,.125-.5c.146-.146-.042-.416.063-.541s.27-.166.4-.271.1-.271.187-.291.187-.208.229-.333c.021-.125.291-.4.4-.52s.229-.5.479-.541.062.458.208.458,0-.229.229-.229a.344.344,0,0,0,.354-.312c.042-.166.291-.271.416-.354s.125-.291.208-.25.125.416.208.645A.575.575,0,0,1,98.98,15.768Z" transform="translate(0.086 -0.072)"></path></svg> 